<svg width="163px" height="163px" viewBox="-2.64 -2.64 29.28 29.28" fill="none" xmlns="http://www.w3.org/2000/svg" stroke="#60A5FA"><g id="SVGRepo_bgCarrier" stroke-width="0"><rect x="-2.64" y="-2.64" width="29.28" height="29.28" rx="14.64" fill="#1e3a8a" strokewidth="0"></rect></g><g id="SVGRepo_tracerCarrier" stroke-linecap="round" stroke-linejoin="round"></g><g id="SVGRepo_iconCarrier"><path d="M9 16C2.814 9.813 3.11 5.134 5.94 3.012l.627-.467a1.483 1.483 0 0 1 2.1.353l1.579 2.272a1.5 1.5 0 0 1-.25 1.99L8.476 8.474c-.38.329-.566.828-.395 1.301.316.88 1.083 2.433 2.897 4.246 1.814 1.814 3.366 2.581 4.246 2.898.474.17.973-.015 1.302-.396l1.314-1.518a1.5 1.5 0 0 1 1.99-.25l2.276 1.58a1.48 1.48 0 0 1 .354 2.096l-.47.633C19.869 21.892 15.188 22.187 9 16z" fill="#60A5FA"></path></g></svg>