<svg fill="#60A5FA" width="139px" height="139px" viewBox="-4.2 -4.2 28.40 28.40" xmlns="http://www.w3.org/2000/svg" stroke="#60A5FA" stroke-width="0.6"><g id="SVGRepo_bgCarrier" stroke-width="0"><rect x="-4.2" y="-4.2" width="28.40" height="28.40" rx="14.2" fill="#1E3A8A" strokewidth="0"></rect></g><g id="SVGRepo_tracerCarrier" stroke-linecap="round" stroke-linejoin="round"></g><g id="SVGRepo_iconCarrier"><path d="M5.8 12.2V6H2C.9 6 0 6.9 0 8v6c0 1.1.9 2 2 2h1v3l3-3h5c1.1 0 2-.9 2-2v-1.82a.943.943 0 0 1-.2.021h-7V12.2zM18 1H9c-1.1 0-2 .9-2 2v8h7l3 3v-3h1c1.1 0 2-.899 2-2V3c0-1.1-.9-2-2-2z"></path></g></svg>