<svg fill="#60A5FA" viewBox="-2.4 -2.4 28.80 28.80" xmlns="http://www.w3.org/2000/svg"><g id="SVGRepo_bgCarrier" stroke-width="0" transform="translate(0,0), scale(1)"><rect x="-2.4" y="-2.4" width="28.80" height="28.80" rx="14.4" fill="#1E3A8A" strokewidth="0"></rect></g><g id="SVGRepo_tracerCarrier" stroke-linecap="round" stroke-linejoin="round" stroke="#CCCCCC" stroke-width="0.9120000000000001"></g><g id="SVGRepo_iconCarrier"><title>lightbulb</title><path d="M12,2A7,7,0,0,0,8,14.74V17a1,1,0,0,0,1,1h6a1,1,0,0,0,1-1V14.74A7,7,0,0,0,12,2ZM9,21a1,1,0,0,0,1,1h4a1,1,0,0,0,1-1V20H9Z"></path></g></svg>